# xmcd
#
# Track frame offsets: 
#        150
#        22835
#        40771
#        64752
#        89263
#        103021
#        121475
#        146772
#        162777
#        185281
#        204264
#        214857
#        234420
#        242762
#        267670
#        282414
#        295437
#
# Disc length: 4245 seconds
#
# Revision: 2
# Processed by: cddbd v1.5.2PL0 Copyright (c) Steve Scherf et al.
# Submitted via: ExactAudioCopy v0.99pb4
#
DISCID=fa109311
DTITLE=Pearl Jam - Unplugged II
DYEAR=1900
DGENRE=hf
TTITLE0=Release
TTITLE1=Elderly Woman Behind The Counter In A Small Town
TTITLE2=Black
TTITLE3=Jeremy
TTITLE4=Indifference
TTITLE5=Wish List
TTITLE6=Yellow Led Better
TTITLE7=Walkin and Rsquo: The cow
TTITLE8=Corduroy
TTITLE9=Footsteps
TTITLE10=Let Me Sleep
TTITLE11=Not For You
TTITLE12=Bee Girl
TTITLE13=Crazy Mary
TTITLE14=Last Kiss
TTITLE15=Soldier Of Love
TTITLE16=Light Years
EXTD=
EXTT0=
EXTT1=
EXTT2=
EXTT3=
EXTT4=
EXTT5=
EXTT6=
EXTT7=
EXTT8=
EXTT9=
EXTT10=
EXTT11=
EXTT12=
EXTT13=
EXTT14=
EXTT15=
EXTT16=
PLAYORDER=
